# xmcd
#
# Track frame offsets: 
#        150
#        16133
#        35810
#        58564
#        81097
#        101225
#        116888
#        135689
#        159968
#        181550
#
# Disc length: 2680 seconds
#
# Revision: 6
# Processed by: cddbd v1.5.2PL0 Copyright (c) Steve Scherf et al.
# Submitted via: ExactAudioCopyFreeDBPlugin 1.0
#
DISCID=7b0a760a
DTITLE=Chris Rea - 2005 - Blue Guitars Cd 7 [Blues Ballads]
DYEAR=2005
DGENRE=Blues
TTITLE0=Last Call
TTITLE1=Maybe That's All I Need To Know
TTITLE2=Deep Winter Blues
TTITLE3=If I Ever Get Over You
TTITLE4=I Love The Rain
TTITLE5=My Soul Crying Out For You
TTITLE6=If That's What You Want
TTITLE7=There's No One Looking
TTITLE8=What Became Of You
TTITLE9=My Deep Blue Ways
EXTD=
EXTT0=
EXTT1=
EXTT2=
EXTT3=
EXTT4=
EXTT5=
EXTT6=
EXTT7=
EXTT8=
EXTT9=
PLAYORDER=
